<svg xmlns="http://www.w3.org/2000/svg" viewBox="0 0 49.39 36.84"><g id="Шар_2" data-name="Шар 2"><path d="M41.57 12.76a18.58 18.58 0 01-3.83-2.4c.75-1 2.25-3.15 2-4.73A2.53 2.53 0 0039 4.28a2.32 2.32 0 00-1.2-.37 4 4 0 00-2.48 1.27 2.73 2.73 0 01.07-.75c.3-2 1.28-3.23 2.7-3.3h.15a4.35 4.35 0 013.9 3.37c.63 2.33.32 5.04-.57 8.26zm-5-3.6a6.45 6.45 0 01-1-2.17c.52-1 1.2-1.81 1.95-1.81a1.14 1.14 0 01.52.15.82.82 0 01.45.75c0 .92-.97 2.1-1.95 3.08zm-1.8 1.65l-1.13.9.45-1.43c.15-.37.38-1.12.68-1.87a6.52 6.52 0 001 1.5 4.82 4.82 0 01-1.03.9zm-20.1 0c-.15-.15-.52-.45-1-.82a10.19 10.19 0 001-1.5 16.72 16.72 0 01.68 1.87l.45 1.43zM11 6.16a.82.82 0 01.45-.75 1.51 1.51 0 01.53-.15c.67 0 1.35.83 2 1.8a6.8 6.8 0 01-1.05 2.18C11.94 8.18 11 7 11 6.16zm-3.07 6.6c-1-3.23-1.27-5.93-.6-8.18a4.35 4.35 0 013.9-3.37h.15c1.42.07 2.39 1.27 2.69 3.3a2.4 2.4 0 01.08.75A3.64 3.64 0 0011.63 4a2.23 2.23 0 00-1.2.37 1.78 1.78 0 00-.75 1.35c-.22 1.58 1.28 3.75 2 4.73a22.33 22.33 0 01-3.79 2.31zm35.32.82c-.22-.07-.44-.22-.67-.3 1.05-3.52 1.35-6.45.67-9S40.21-.07 38 .08c-2 .15-3.37 1.73-3.75 4.28a7.49 7.49 0 000 2.17c-.44.68-.75 1.2-.89 1.43l-8.67 13.72-8.62-13.8c-.08-.14-.45-.75-.9-1.42a11.33 11.33 0 000-2.18C14.79 1.73 13.37.16 11.42 0 9.17-.14 6.84 1.74 6.17 4.21s-.38 5.47.67 9a2.82 2.82 0 01-.67.3c-3.53 1.87-6 9.07-6.17 9.37a.64.64 0 00.37.75.64.64 0 00.75-.37c0-.08 2.48-7.13 5.55-8.77l.45-.23c.61 2 1.43 4 2.4 6.3C12 26.49 10.89 31.21 9.54 32a.47.47 0 00-.15.75.66.66 0 00.45.3.42.42 0 00.3-.08c1.88-1.2 3.15-6.45.45-12.9-1-2.32-1.8-4.42-2.4-6.37a17.64 17.64 0 004.2-2.63l10.5 13.2-7.2 11.4a.79.79 0 00-.14.83l.14.3h.52c.31 0 .45-.23.61-.38l8-9.9 7.94 9.9a.68.68 0 00.61.38h.37l.15-.3a.82.82 0 00-.15-.83l-7.2-11.4L37 11.11a19.62 19.62 0 004.2 2.63c-.6 1.95-1.42 4-2.4 6.37-2.7 6.38-1.42 11.7.45 12.9a.44.44 0 00.3.08.41.41 0 00.45-.3.56.56 0 00-.15-.75c-1.35-.83-2.47-5.55 0-11.48a60.93 60.93 0 002.4-6.3l.45.23c3.08 1.64 5.55 8.69 5.55 8.77a.61.61 0 00.75.37.62.62 0 00.38-.75c-.17-.22-2.64-7.42-6.17-9.3z" id="Layer_1" data-name="Layer 1"/></g></svg>