<svg xmlns="http://www.w3.org/2000/svg" viewBox="0 0 67.06 43.9"><g id="Шар_2" data-name="Шар 2"><path d="M66.09 23.54a2.65 2.65 0 00-2.2-.54 61.39 61.39 0 01-10.51.88 52 52 0 01-9.87-.88 93.08 93.08 0 00-16.36-1.1c-11.93 0-24.6 1-24.73 1.05A2.65 2.65 0 000 25.59v11.69a2.65 2.65 0 002.65 2.65H3l1 4h2.62l1-4h52.05l1 4h2.65l1-4h.11a2.65 2.65 0 002.65-2.65V25.59a2.7 2.7 0 00-.99-2.05zm-13.5-5.15h-18c0-2.12 4-3.83 9-3.83s9 1.71 9 3.83zm-20.31 0H14.34c0-2.12 4-3.83 9-3.83s8.94 1.71 8.94 3.83zM7.72 7.54A182.46 182.46 0 0133.53 5.3a181.09 181.09 0 0125.81 2.25v10.87h5.29V3.08l-2.19-.39A188.65 188.65 0 0033.52 0 188.61 188.61 0 004.61 2.69l-2.19.39V19h5.3z" id="Шар_1-2" data-name="Шар 1"/></g></svg>