<svg xmlns="http://www.w3.org/2000/svg" viewBox="0 0 66.67 68.98"><g id="Шар_2" data-name="Шар 2"><g id="Шар_1-2" data-name="Шар 1"><path d="M34.86 62.73h-7.27l13.48-35.79a45.53 45.53 0 0110.77 6.31c4.89-10.7 4.13-21.77-3-28.47C32.16 7.34 26.33 15 22.78 22.45a44.31 44.31 0 0113.63 2.69L22.08 62.59h-.71C17.68 62.59 0 65.29 0 69h56.67c0-3.69-18.13-6.25-21.81-6.25"/><path d="M55.55 9.12c3.79 10.07 3.43 20 0 27.36a19.43 19.43 0 016.93 4.46 25.43 25.43 0 013.07 3.31 30.33 30.33 0 001.12-8.81c0-12.85-4.81-20.1-11.12-26.32M19.13 20.61c3.53-7.3 10-14.41 23-18.43a28.13 28.13 0 00-6.26-.7c-13.19 0-21.54 6.44-26.67 17.36 2.09-.42 7.62.84 10 1.77m27.42-18.5c.93 0 1.69-.47 1.69-1.06s-.76-1-1.69-1-1.69.47-1.69 1.05.76 1.06 1.69 1.06"/></g></g></svg>