<svg xmlns="http://www.w3.org/2000/svg" viewBox="0 0 71.6 75"><g id="Шар_2" data-name="Шар 2"><g id="Шар_1-2" data-name="Шар 1"><path d="M55.16 44.77A13.8 13.8 0 1069 58.57a13.8 13.8 0 00-13.84-13.8zm0 30.23A16.44 16.44 0 1171.6 58.57 16.45 16.45 0 0155.16 75z"/><path d="M62.38 51.36a.77.77 0 00-1.07 0l-5.17 5.17a2.29 2.29 0 00-2 0l-7-7a.76.76 0 00-1.07 1.07l7.05 7a2.26 2.26 0 104.08 0l5.16-5.17a.76.76 0 00.02-1.07zM18.89 37.78h9.07v8.69h-9.07zm9.07-8.69h9.07v8.69h-9.07zm-18.14 0h9.07v8.69H9.82z"/><path d="M62.34 19.65H3v-6a4.17 4.17 0 014.18-4.21h9.44V14a2.27 2.27 0 002.27 2.27A2.27 2.27 0 0021.16 14V9.44h21.92V14a2.27 2.27 0 002.26 2.27A2.27 2.27 0 0047.62 14V9.44H58.2a4.2 4.2 0 014.15 4.16v6zM58.19 6.42H47.61V2.27A2.27 2.27 0 0045.34 0a2.27 2.27 0 00-2.27 2.27v4.16H21.16V2.27A2.27 2.27 0 0018.89 0a2.27 2.27 0 00-2.27 2.27v4.16H7.18A7.18 7.18 0 000 13.6v47.24A7.19 7.19 0 007.18 68h31.2A20.24 20.24 0 0137 65H7.18A4.16 4.16 0 013 60.84V22.67h59.34v18a18.75 18.75 0 013 1.54V13.6a7.22 7.22 0 00-7.15-7.18z"/></g></g></svg>