<svg xmlns="http://www.w3.org/2000/svg" viewBox="0 0 75 58.48"><g id="Шар_2" data-name="Шар 2"><path d="M7.25 23.32l16.1 4.38.31.72c.93 2.2 3.2 7.58 8.76 20.72zM26.33 3.4H47.6l11.27 3.17L53.09 8l-15.9 4-21.55-5.46zm28.51 19.88l5.82-7.56 4.63-6L70.72 19zm-22-7.57l-8.07 8L13.63 9.53l20.22 5.15zm3.76 34.57c-2.47-5.84-6.22-14.7-8.5-20.07-.33-.79-.62-1.49-.89-2.11 0-.05-.05-.11-.07-.17h20.71l-8 18.85-2.35 5.64zM61.15 9.5l-2 2.66-8.94 11.54-9.6-9L51.1 12zM75 20.18a1.79 1.79 0 000-.4v-.13a2 2 0 00-.17-.46L67 5.8a.39.39 0 00-.08-.1 1.62 1.62 0 00-.18-.19l-.24-.21-.08-.06a1.67 1.67 0 00-.23-.12l-.13-.06L66 5 48.29.06a1.76 1.76 0 00-.46-.06H26.09a1.59 1.59 0 00-.48.07L8.73 5h-.08l-.12.06a1.36 1.36 0 00-.24.13h-.07l-.11.1a1.62 1.62 0 00-.18.19l-.08.1v.05L.21 19.21a1.74 1.74 0 00-.17.45v.12a2.68 2.68 0 000 .4v.1a1.85 1.85 0 00.11.42v.05a.26.26 0 010 .09 2 2 0 00.24.33v.06L36.28 58a1.93 1.93 0 00.28.22 1.49 1.49 0 00.36.17h.12a1.54 1.54 0 00.43.06 2.12 2.12 0 00.43-.06h.16a1.49 1.49 0 00.36-.17 1.44 1.44 0 00.27-.22l35.83-36.77v-.06a1.94 1.94 0 00.23-.33.93.93 0 000-.1 1.45 1.45 0 00.1-.41.17.17 0 00.15-.15z" fill="#010101" id="Шар_1-2" data-name="Шар 1"/></g></svg>