<svg xmlns="http://www.w3.org/2000/svg" viewBox="0 0 74.99 65.62"><g id="Шар_2" data-name="Шар 2"><path d="M75 58.33a10.9 10.9 0 01-4.17 1c-3.12 0-5.2-2.08-8.33-2.08s-5.21 2.08-8.33 2.08-5.17-2.04-8.34-2.04-5.21 2.08-8.33 2.08-5.21-2.08-8.34-2.08-5.2 2.08-8.33 2.08-5.2-2.08-8.33-2.08-5.21 2.08-8.33 2.08a10.9 10.9 0 01-4.17-1v6.25a10.85 10.85 0 004.16 1c3.13 0 5.21-2.08 8.33-2.08s5.21 2.08 8.33 2.08 5.21-2.08 8.34-2.08 5.2 2.08 8.33 2.08 5.2-2.08 8.33-2.08 5.21 2.08 8.33 2.08 5.21-2.08 8.33-2.08 5.21 2.08 8.34 2.08a10.9 10.9 0 004.16-1v-6.29zm0-12.5a10.9 10.9 0 01-4.17 1c-3.12 0-5.2-2.08-8.33-2.08s-5.21 2.08-8.33 2.08-5.17-2.04-8.34-2.04-5.21 2.08-8.33 2.08-5.21-2.08-8.34-2.08-5.2 2.08-8.33 2.08-5.2-2.08-8.33-2.08-5.21 2.08-8.33 2.08a10.9 10.9 0 01-4.17-1v6.25a10.9 10.9 0 004.17 1c3.12 0 5.21-2.12 8.33-2.12s5.21 2.08 8.33 2.08S26 51 29.16 51s5.21 2.08 8.34 2.08S42.7 51 45.83 51s5.2 2.08 8.33 2.08S59.37 51 62.49 51s5.21 2.08 8.33 2.08a10.9 10.9 0 004.17-1zM12.49 26h20.83v6.25H12.49zm0 14.58v-2.04h20.83v3.13a11 11 0 004.17 1 7.68 7.68 0 002.08-.3V20.83a14.59 14.59 0 0129.17 0 3.13 3.13 0 106.25 0 20.82 20.82 0 00-41.61-1H12.55A14.54 14.54 0 0134 8a24 24 0 014-4.86A20.8 20.8 0 006.24 20.83v21.58c2.1-.58 3.87-1.79 6.25-1.79z" id="Шар_1-2" data-name="Шар 1"/></g></svg>