<svg xmlns="http://www.w3.org/2000/svg" viewBox="0 0 75 44.69"><g id="Шар_2" data-name="Шар 2"><g id="Шар_1-2" data-name="Шар 1"><path d="M56.32 9.84a5 5 0 10-.68-7 5 5 0 00.68 7zm-26.06 4.23a2 2 0 01-4 0 2 2 0 114 0M25.8 9.42a.81.81 0 11-1.62 0 .81.81 0 111.62 0M15 1.84a.82.82 0 11-1.63 0 .82.82 0 011.63 0m8.33 3.74a1.61 1.61 0 11-3.22 0 1.61 1.61 0 013.22 0m-.9 5.66a1.24 1.24 0 01-2.49 0 1.24 1.24 0 012.49 0m4.29-10a1.24 1.24 0 11-2.49 0 1.24 1.24 0 012.49 0"/><path d="M48.49 19.08a2.48 2.48 0 00.27 0H49l5.09-5-5.22 5.78h-5.42l-5.62-2.79zm-16.44 3.74h29.48l.69-.76-3.6-4.91 4.3 5-5.26 5.79 2 2.16 7.62-6.27a2.11 2.11 0 00.14-2.94l-6.54-7.51c-.08-.08-.14-.17-.23-.25a4.21 4.21 0 00-4.5-.74l-7.37 2.45-10.68-1.1-.57 3.26-1.53-.82a2.63 2.63 0 00-3.17.63l-2.67 3.07H4.2c-4.79 0-4.2 2.94-4.2 2.94zm38.75-2.94h-3.24l.34.65a2.61 2.61 0 01.56 2.29H75s.59-2.94-4.2-2.94z"/><path d="M67.68 24.18l-8 6.61-2.71-2.9 4-4.45h-3.86l-9.65.06h-20l-9.64-.06c-5.32 0-10.34-.14-14.8-.21.75 2 2.19 5.87 3.07 8.29 1.09 3 3.18 7.71 8 9.31l-1 3.82h2.48L17 41.4a147.66 147.66 0 0020.5 1.06A147.76 147.76 0 0058 41.4l1.36 3.29h2.49l-1-3.82c4.83-1.6 6.93-6.35 8-9.31.89-2.42 2.33-6.28 3.07-8.28l-3.6.06a2.9 2.9 0 01-.64.84z"/></g></g></svg>